<?xml version="1.0" encoding="UTF-8" standalone="no"?>
<!-- Created with Inkscape (http://www.inkscape.org/) -->

<svg
   width="297mm"
   height="210mm"
   viewBox="0 0 297 210"
   version="1.1"
   id="svg5"
   inkscape:version="1.1.1 (3bf5ae0d25, 2021-09-20)"
   sodipodi:docname="tools.svg"
   xmlns:inkscape="http://www.inkscape.org/namespaces/inkscape"
   xmlns:sodipodi="http://sodipodi.sourceforge.net/DTD/sodipodi-0.dtd"
   xmlns="http://www.w3.org/2000/svg"
   xmlns:svg="http://www.w3.org/2000/svg">
  <sodipodi:namedview
     id="namedview7"
     pagecolor="#ffffff"
     bordercolor="#666666"
     borderopacity="1.0"
     inkscape:pageshadow="2"
     inkscape:pageopacity="0.0"
     inkscape:pagecheckerboard="0"
     inkscape:document-units="mm"
     showgrid="false"
     units="mm"
     inkscape:showpageshadow="false"
     inkscape:zoom="0.71713664"
     inkscape:cx="566.83758"
     inkscape:cy="410.66093"
     inkscape:window-width="1920"
     inkscape:window-height="1043"
     inkscape:window-x="0"
     inkscape:window-y="0"
     inkscape:window-maximized="1"
     inkscape:current-layer="layer1" />
  <defs
     id="defs2" />
  <g
     inkscape:label="Layer 1"
     inkscape:groupmode="layer"
     id="layer1">
    <g
       style="fill:#ffffff;stroke-width:0.334794"
       id="g894"
       transform="matrix(1.5805732,0,0,1.5805732,138.37985,73.051701)">
      <path
         clip-rule="evenodd"
         d="M 0,0 H 24 V 24 H 0 Z"
         fill="none"
         id="path882"
         style="stroke-width:0.0513893" />
      <path
         d="M 22.7,19 13.6,9.9 C 14.5,7.6 14,4.9 12.1,3 10.1,1 7.1,0.6 4.7,1.7 L 9,6 6,9 1.6,4.7 c -1.2,2.4 -0.7,5.4 1.3,7.4 1.9,1.9 4.6,2.4 6.9,1.5 l 9.1,9.1 c 0.4,0.4 1,0.4 1.4,0 l 2.3,-2.3 C 23.1,20 23.1,19.3 22.7,19 Z"
         id="path884"
         style="stroke-width:0.334794" />
    </g>
    <g
       style="fill:#ffffff;stroke-width:0.146394"
       id="g1177"
       transform="matrix(1.6321566,0.77625256,-0.77625256,1.6321566,241.51483,61.22079)">
      <g
         id="g1146"
         style="stroke-width:0.146394">
        <rect
           fill="none"
           height="24"
           width="24"
           y="0"
           id="rect1144"
           x="0"
           style="stroke-width:0.0107919" />
      </g>
      <g
         id="g1160"
         style="stroke-width:0.146394">
        <g
           id="g1158"
           style="stroke-width:0.146394">
          <g
             id="g1156"
             style="stroke-width:0.146394">
            <g
               id="g1150"
               style="stroke-width:0.146394">
              <path
                 d="M 17.59,3.41 15,6 V 5 C 15,3.9 14.1,3 13,3 H 9 C 6.24,3 4,5.24 4,8 h 5 v 3 h 6 V 8 l 2.59,2.59 c 0.26,0.26 0.62,0.41 1,0.41 H 18.6 C 19.37,11 20,10.37 20,9.59 V 4.41 C 20,3.63 19.37,3 18.59,3 h -0.01 c -0.37,0 -0.73,0.15 -0.99,0.41 z"
                 id="path1148"
                 style="stroke-width:0.146394" />
            </g>
            <g
               id="g1154"
               style="stroke-width:0.146394">
              <path
                 d="m 9,13 v 7 c 0,0.55 0.45,1 1,1 h 4 c 0.55,0 1,-0.45 1,-1 v -7 z"
                 id="path1152"
                 style="stroke-width:0.146394" />
            </g>
          </g>
        </g>
      </g>
    </g>
    <g
       style="fill:#ffffff;stroke-width:0.288657"
       id="g1233"
       transform="matrix(0.37300178,-1.7948524,1.7948524,0.37300178,179.5419,145.04528)">
      <rect
         fill="none"
         height="24"
         width="24"
         id="rect1221"
         x="0"
         y="0"
         style="stroke-width:0.0576303" />
      <path
         d="M 19.73,14.23 7.71,2.21 C 7.32,1.82 6.69,1.82 6.3,2.21 L 3.7,4.8 C 3.36,5.14 3.31,5.68 3.59,6.08 l 7.65,10.98 c -0.78,0.78 -0.78,2.05 0,2.83 l 1.41,1.41 c 0.78,0.78 2.05,0.78 2.83,0 l 4.24,-4.24 c 0.79,-0.78 0.79,-2.05 0.01,-2.83 z m -5.66,5.65 -1.41,-1.41 4.24,-4.24 1.41,1.41 z"
         id="path1223"
         style="stroke-width:0.288657" />
    </g>
  </g>
</svg>
